<svg width="180" height="180" viewBox="0 0 180 180" fill="none" xmlns="http://www.w3.org/2000/svg">
<path d="M119.955 91.96V109.673L104.063 121.639L88.1707 109.673V91.96H119.955Z" fill="#FED2A4"/>
<path d="M95.2019 109.673V91.96H88.1707V109.673L104.063 121.639L107.579 118.992L95.2019 109.673Z" fill="#FFBD86"/>
<path d="M42.3803 90H19.4957C16.4955 90 14.063 87.5679 14.063 84.5673V50.1757C14.063 47.1754 16.4951 44.743 19.4957 44.743H42.3803C45.3805 44.743 47.813 47.1751 47.813 50.1757V66.3602C47.813 67.0081 48.0686 67.6297 48.5239 68.0906L54.9191 74.5586C56.4558 76.1129 55.3547 78.75 53.169 78.75H50.2739C48.9148 78.75 47.813 79.8518 47.813 81.2109V84.5673C47.813 87.5679 45.3809 90 42.3803 90Z" fill="#00D7A3"/>
<path d="M36.563 146.25L57.1681 119.502C58.4063 117.894 60.0702 116.666 61.9711 115.956L88.1815 106.157L102.582 117.008C103.459 117.668 104.667 117.668 105.544 117.008L119.944 106.157L155.445 117.341C161.699 119.38 165.937 125.211 165.937 131.799V179.987H59.063V151.875L39.7886 175.162C37.7734 178.184 34.3808 180 30.7481 180H30.5534C24.5526 180 19.688 175.135 19.688 169.135V157.5L36.563 146.25Z" fill="#42A5F5"/>
<path d="M26.7192 169.135V157.5L43.5942 146.25L64.1993 119.502C65.4375 117.894 67.1015 116.666 69.0024 115.955L90.5131 107.914L88.1815 106.157L61.9711 115.955C60.0706 116.666 58.4066 117.894 57.1681 119.502L36.563 146.25L19.688 157.5V169.135C19.688 175.135 24.5526 180 30.5534 180H30.7481C31.9245 180 33.0748 179.807 34.1622 179.447C29.839 178.012 26.7192 173.939 26.7192 169.135Z" fill="#0593FC"/>
<path d="M109.614 117.008C110.49 117.668 111.699 117.668 112.576 117.008L124.903 107.719L119.945 106.157L107.579 115.475L109.614 117.008Z" fill="#0593FC"/>
<path d="M59.063 146.143H143.438V168.75H59.063V146.143Z" fill="#00D7A3"/>
<path d="M80.3249 45.0004H71.3548C67.1747 45.0004 63.7864 48.3891 63.7864 52.5688V58.2399C63.7864 62.4199 67.1751 65.8083 71.3548 65.8083H80.3249V45.0004Z" fill="#FED2A4"/>
<path d="M127.8 45.0004H136.771C140.951 45.0004 144.339 48.3891 144.339 52.5688V58.2399C144.339 62.4199 140.95 65.8083 136.771 65.8083H127.8V45.0004Z" fill="#FED2A4"/>
<path d="M76.8093 29.7556V70.9137C76.8093 84.8176 88.0801 96.0884 101.984 96.0884H106.142C120.046 96.0884 131.317 84.8176 131.317 70.9137V30.0129L76.8093 29.7556Z" fill="#FFF3DE"/>
<path d="M83.8406 70.914V29.789L76.8093 29.7559V70.9144C76.8093 84.8183 88.0804 96.0891 101.984 96.0891H106.142C106.624 96.0891 107.103 96.0754 107.579 96.0486C94.3439 95.3033 83.8406 84.3353 83.8406 70.914Z" fill="#FFE5C2"/>
<path d="M69.0967 45.0003H79.453C85.278 45.0003 89.9999 40.2785 89.9999 34.4534V11.2493H82.4561C73.7187 11.2493 66.6357 18.3322 66.6357 27.0696V42.5394C66.6357 43.8985 67.7375 45.0003 69.0967 45.0003Z" fill="#546E7A"/>
<path d="M73.667 42.5394V27.0696C73.667 18.3322 80.7499 11.2493 89.4873 11.2493H82.4561C73.7187 11.2493 66.6357 18.3322 66.6357 27.0696V42.5394C66.6357 43.8985 67.7375 45.0003 69.0967 45.0003H76.1279C74.7688 45.0003 73.667 43.8985 73.667 42.5394Z" fill="#435860"/>
<path d="M119.303 0C131.621 0 141.606 9.98543 141.606 22.3028V42.5394C141.606 43.8986 140.504 45.0004 139.145 45.0004H100.865C94.8646 45.0004 90 40.1358 90 34.135V10.865C90.0004 4.86457 94.8649 0 100.865 0H119.303Z" fill="#546E7A"/>
<path d="M97.0316 34.135V10.8654C97.0316 4.86457 101.896 0 107.897 0H100.865C94.8646 0 90 4.86457 90 10.8654V34.135C90 40.1358 94.8646 45.0004 100.865 45.0004H107.897C101.896 45.0004 97.0316 40.1358 97.0316 34.135Z" fill="#435860"/>
<path d="M115.791 61.186C114.291 61.186 113.075 59.9699 113.075 58.4698V54.9046C113.075 53.4041 114.291 52.1884 115.791 52.1884C117.291 52.1884 118.507 53.4045 118.507 54.9046V58.4698C118.508 59.9699 117.292 61.186 115.791 61.186Z" fill="#435860"/>
<path d="M92.3883 61.186C90.8878 61.186 89.6721 59.9699 89.6721 58.4698V54.9046C89.6721 53.4041 90.8882 52.1884 92.3883 52.1884C93.8884 52.1884 95.1045 53.4045 95.1045 54.9046V58.4698C95.1045 59.9699 93.8884 61.186 92.3883 61.186Z" fill="#435860"/>
<path d="M104.063 82.7687C98.809 82.7687 94.5347 78.4941 94.5347 73.24C94.5347 71.7395 95.7507 70.5238 97.2508 70.5238C98.751 70.5238 99.967 71.7399 99.967 73.24C99.967 75.4988 101.804 77.336 104.063 77.336C106.321 77.336 108.158 75.4988 108.158 73.24C108.158 71.7395 109.374 70.5238 110.875 70.5238C112.375 70.5238 113.591 71.7399 113.591 73.24C113.591 78.4941 109.317 82.7687 104.063 82.7687Z" fill="#FFBD86"/>
<path d="M140.723 179.986V141.23C140.723 139.73 141.936 138.513 143.439 138.513C144.938 138.513 146.155 139.73 146.155 141.23V179.986H140.723V179.986Z" fill="#0593FC"/>
<path d="M59.063 179.986V141.23C59.063 139.73 60.2762 138.513 61.7792 138.513C63.2786 138.513 64.4953 139.73 64.4953 141.23V179.986H59.063V179.986Z" fill="#0593FC"/>
<path d="M33.8463 164.214C32.3458 164.214 31.1301 162.998 31.1301 161.498V151.684C31.1301 150.183 32.3462 148.968 33.8463 148.968C35.3464 148.968 36.5625 150.184 36.5625 151.684V161.498C36.5628 162.998 35.3468 164.214 33.8463 164.214Z" fill="#0593FC"/>
<path d="M28.1256 75.7128C27.4053 75.7128 26.7144 75.4267 26.2047 74.9173L20.5797 69.2923C19.519 68.2312 19.519 66.5114 20.5797 65.4504C21.6407 64.3901 23.3605 64.3901 24.4216 65.4504L28.1256 69.1548L37.4543 59.8254C38.5153 58.7651 40.2355 58.7651 41.2958 59.8254C42.3569 60.8864 42.3569 62.6062 41.2962 63.6673L30.0466 74.9173C29.5371 75.4267 28.8463 75.7128 28.1256 75.7128Z" fill="#EBF6FF"/>
<path d="M22.5002 127.266H33.7502V111.618C33.7502 108.602 31.3055 106.157 28.2901 106.157H27.9604C24.9447 106.157 22.5002 108.602 22.5002 111.618V127.266Z" fill="#FED2A4"/>
<path d="M30.762 106.753C30.0191 106.375 29.181 106.157 28.2901 106.157H27.9604C24.9447 106.157 22.5002 108.602 22.5002 111.618V127.266H27.7737V111.618C27.7737 109.493 28.9901 107.656 30.762 106.753Z" fill="#FFBD86"/>
<path d="M36.5627 129.023V152.227C36.5627 155.138 34.2038 157.5 31.2893 157.5H19.3362C16.4252 157.5 14.0627 155.138 14.0627 152.227V129.023C14.0627 126.113 16.4252 123.75 19.3362 123.75H31.2893C34.2038 123.75 36.5627 126.113 36.5627 129.023Z" fill="#FFF3DE"/>
<path d="M19.3362 152.227V129.023C19.3362 126.113 21.6987 123.75 24.6096 123.75H19.3362C16.4252 123.75 14.0627 126.113 14.0627 129.023V152.227C14.0627 155.138 16.4252 157.5 19.3362 157.5H24.6096C21.6987 157.5 19.3362 155.138 19.3362 152.227Z" fill="#FFE5C2"/>
<path d="M36.5627 132.282V137.718H25.3127C23.8115 137.718 22.5986 136.501 22.5986 135C22.5986 133.499 23.8115 132.282 25.3127 132.282H36.5627Z" fill="#FED2A4"/>
<path d="M36.5627 143.532V148.968H25.3127C23.8115 148.968 22.5986 147.751 22.5986 146.25C22.5986 144.749 23.8115 143.532 25.3127 143.532H36.5627Z" fill="#FED2A4"/>
</svg>
