<svg width="24" height="24" viewBox="0 0 24 24" fill="none" xmlns="http://www.w3.org/2000/svg">
<path d="M18.29 17.29C18.3827 17.1975 18.4563 17.0876 18.5064 16.9666C18.5566 16.8456 18.5825 16.716 18.5825 16.585C18.5825 16.454 18.5566 16.3243 18.5064 16.2034C18.4563 16.0824 18.3827 15.9725 18.29 15.88L14.42 12L18.3 8.11999C18.3926 8.02741 18.466 7.9175 18.5161 7.79653C18.5662 7.67557 18.592 7.54592 18.592 7.41499C18.592 7.28406 18.5662 7.15441 18.5161 7.03345C18.466 6.91248 18.3926 6.80257 18.3 6.70999C18.2074 6.61741 18.0975 6.54397 17.9766 6.49386C17.8556 6.44376 17.7259 6.41797 17.595 6.41797C17.4641 6.41797 17.3344 6.44376 17.2135 6.49386C17.0925 6.54397 16.9826 6.61741 16.89 6.70999L12.3 11.3C12.2073 11.3925 12.1338 11.5024 12.0836 11.6234C12.0334 11.7443 12.0076 11.874 12.0076 12.005C12.0076 12.136 12.0334 12.2656 12.0836 12.3866C12.1338 12.5076 12.2073 12.6175 12.3 12.71L16.89 17.3C17.27 17.68 17.9 17.68 18.29 17.29Z" fill="#174AFF"/>
<path d="M11.7 17.29C11.7927 17.1975 11.8662 17.0876 11.9164 16.9666C11.9666 16.8456 11.9924 16.716 11.9924 16.585C11.9924 16.454 11.9666 16.3243 11.9164 16.2034C11.8662 16.0824 11.7927 15.9725 11.7 15.88L7.82999 12L11.71 8.11999C11.897 7.93301 12.002 7.67942 12.002 7.41499C12.002 7.15056 11.897 6.89697 11.71 6.70999C11.523 6.52301 11.2694 6.41797 11.005 6.41797C10.7406 6.41797 10.487 6.52301 10.3 6.70999L5.70999 11.3C5.61728 11.3925 5.54373 11.5024 5.49355 11.6234C5.44337 11.7443 5.41754 11.874 5.41754 12.005C5.41754 12.136 5.44337 12.2656 5.49355 12.3866C5.54373 12.5076 5.61728 12.6175 5.70999 12.71L10.3 17.3C10.68 17.68 11.31 17.68 11.7 17.29Z" fill="#00D7A3"/>
</svg>
