<svg
              width="329"
              height="323"
              viewBox="0 0 329 328"
              fill="none"
              xmlns="http://www.w3.org/2000/svg"
            >
              <mask id="path-1-inside-1_26_2426" fill="white">
                <path
                  d="M176 0.347656C206.192 0.347657 235.706 9.3006 260.809 26.0743C285.913 42.8481 305.479 66.6892 317.033 94.5829C328.587 122.477 331.61 153.17 325.72 182.782C319.829 212.394 305.291 239.594 283.942 260.943L246.162 223.163C260.039 209.286 269.489 191.606 273.318 172.358C277.146 153.111 275.181 133.16 267.671 115.029C260.161 96.8982 247.443 81.4015 231.126 70.4986C214.809 59.5956 195.624 53.7762 176 53.7762L176 0.347656Z"
                />
              </mask>
              <path
                d="M176 0.347656C206.192 0.347657 235.706 9.3006 260.809 26.0743C285.913 42.8481 305.479 66.6892 317.033 94.5829C328.587 122.477 331.61 153.17 325.72 182.782C319.829 212.394 305.291 239.594 283.942 260.943L246.162 223.163C260.039 209.286 269.489 191.606 273.318 172.358C277.146 153.111 275.181 133.16 267.671 115.029C260.161 96.8982 247.443 81.4015 231.126 70.4986C214.809 59.5956 195.624 53.7762 176 53.7762L176 0.347656Z"
                stroke="#00D7A3"
                stroke-width="100"
                mask="url(#path-1-inside-1_26_2426)"
              />
              <mask id="path-2-inside-2_26_2426" fill="white">
                <path
                  d="M283.942 260.943C264.708 280.177 240.683 293.922 214.355 300.757C188.026 307.591 160.349 307.266 134.188 299.816L148.822 248.431C165.827 253.273 183.817 253.485 200.93 249.042C218.044 244.6 233.66 235.665 246.162 223.163L283.942 260.943Z"
                />
              </mask>
              <path
                d="M283.942 260.943C264.708 280.177 240.683 293.922 214.355 300.757C188.026 307.591 160.349 307.266 134.188 299.816L148.822 248.431C165.827 253.273 183.817 253.485 200.93 249.042C218.044 244.6 233.66 235.665 246.162 223.163L283.942 260.943Z"
                stroke="#00D7A3"
                stroke-width="120"
                mask="url(#path-2-inside-2_26_2426)"
              />
              <mask id="path-3-inside-3_26_2426" fill="white">
                <path
                  d="M34.218 96.4244C45.5615 67.9972 65.1883 43.6363 90.5509 26.5039C115.913 9.37143 145.84 0.258614 176.447 0.348312L176.291 53.7767C156.396 53.7184 136.944 59.6417 120.458 70.7778C103.972 81.9139 91.2149 97.7484 83.8416 116.226L34.218 96.4244Z"
                />
              </mask>
              <path
                d="M34.218 96.4244C45.5615 67.9972 65.1883 43.6363 90.5509 26.5039C115.913 9.37143 145.84 0.258614 176.447 0.348312L176.291 53.7767C156.396 53.7184 136.944 59.6417 120.458 70.7778C103.972 81.9139 91.2149 97.7484 83.8416 116.226L34.218 96.4244Z"
                stroke="#00D7A3"
                stroke-width="80"
                mask="url(#path-3-inside-3_26_2426)"
              />
              <path
                d="M37.6186 158.73C37.3372 151.935 37.5574 145.145 38.27 138.416L40.0188 139.114C39.3575 145.589 39.158 152.119 39.4286 158.655C40.2253 177.895 45.078 196.749 53.6688 213.982C62.2596 231.215 74.3947 246.439 89.2789 258.656C94.3353 262.806 99.6702 266.578 105.239 269.947L104.744 271.764C98.941 268.282 93.3867 264.371 88.1296 260.056C73.0481 247.678 60.7522 232.252 52.0475 214.79C43.3428 197.328 38.4258 178.225 37.6186 158.73Z"
                fill="#174AFF"
                stroke="#3C50E0"
                stroke-width="75"
              />
              <path
                d="M151.239 152V149.335L158.309 142.405C158.985 141.722 159.549 141.116 159.999 140.585C160.45 140.055 160.788 139.541 161.013 139.044C161.239 138.547 161.352 138.017 161.352 137.453C161.352 136.81 161.206 136.26 160.914 135.803C160.622 135.339 160.221 134.981 159.711 134.729C159.201 134.477 158.621 134.351 157.971 134.351C157.301 134.351 156.715 134.49 156.211 134.768C155.707 135.04 155.316 135.428 155.038 135.932C154.766 136.436 154.63 137.036 154.63 137.732H151.12C151.12 136.439 151.415 135.315 152.005 134.361C152.595 133.406 153.407 132.667 154.441 132.143C155.482 131.62 156.675 131.358 158.021 131.358C159.386 131.358 160.586 131.613 161.62 132.124C162.654 132.634 163.456 133.333 164.026 134.222C164.603 135.11 164.891 136.124 164.891 137.264C164.891 138.027 164.746 138.776 164.454 139.511C164.162 140.247 163.648 141.062 162.913 141.957C162.183 142.852 161.159 143.936 159.84 145.209L156.33 148.778V148.918H165.2V152H151.239ZM176.157 152.388C174.52 152.388 173.114 151.973 171.941 151.145C170.774 150.31 169.876 149.107 169.246 147.536C168.623 145.958 168.312 144.059 168.312 141.838C168.318 139.617 168.633 137.728 169.256 136.17C169.886 134.606 170.784 133.413 171.951 132.591C173.124 131.769 174.526 131.358 176.157 131.358C177.788 131.358 179.19 131.769 180.363 132.591C181.536 133.413 182.434 134.606 183.058 136.17C183.687 137.735 184.002 139.624 184.002 141.838C184.002 144.065 183.687 145.968 183.058 147.545C182.434 149.116 181.536 150.316 180.363 151.145C179.196 151.973 177.794 152.388 176.157 152.388ZM176.157 149.276C177.43 149.276 178.434 148.649 179.17 147.396C179.912 146.137 180.283 144.284 180.283 141.838C180.283 140.221 180.114 138.862 179.776 137.761C179.438 136.661 178.961 135.832 178.344 135.276C177.728 134.712 176.999 134.43 176.157 134.43C174.891 134.43 173.89 135.06 173.154 136.32C172.418 137.572 172.047 139.412 172.04 141.838C172.034 143.462 172.196 144.828 172.528 145.935C172.866 147.042 173.343 147.877 173.96 148.44C174.576 148.997 175.308 149.276 176.157 149.276ZM194.544 152.278C193.066 152.278 191.754 152.03 190.607 151.533C189.467 151.036 188.572 150.356 187.922 149.494C187.279 148.626 186.961 147.642 186.968 146.541C186.961 145.686 187.147 144.901 187.525 144.185C187.902 143.469 188.413 142.872 189.056 142.395C189.705 141.911 190.428 141.603 191.223 141.47V141.331C190.176 141.099 189.328 140.565 188.678 139.73C188.035 138.888 187.717 137.917 187.723 136.817C187.717 135.769 188.008 134.835 188.598 134.013C189.188 133.191 189.997 132.545 191.025 132.074C192.052 131.597 193.225 131.358 194.544 131.358C195.85 131.358 197.014 131.597 198.034 132.074C199.062 132.545 199.871 133.191 200.461 134.013C201.057 134.835 201.355 135.769 201.355 136.817C201.355 137.917 201.027 138.888 200.371 139.73C199.721 140.565 198.883 141.099 197.855 141.331V141.47C198.651 141.603 199.367 141.911 200.003 142.395C200.646 142.872 201.157 143.469 201.534 144.185C201.919 144.901 202.111 145.686 202.111 146.541C202.111 147.642 201.786 148.626 201.137 149.494C200.487 150.356 199.592 151.036 198.452 151.533C197.319 152.03 196.016 152.278 194.544 152.278ZM194.544 149.435C195.307 149.435 195.97 149.305 196.533 149.047C197.096 148.782 197.534 148.411 197.846 147.933C198.157 147.456 198.316 146.906 198.323 146.283C198.316 145.633 198.147 145.06 197.816 144.562C197.491 144.059 197.043 143.664 196.473 143.379C195.91 143.094 195.267 142.952 194.544 142.952C193.815 142.952 193.166 143.094 192.596 143.379C192.025 143.664 191.575 144.059 191.243 144.562C190.918 145.06 190.759 145.633 190.766 146.283C190.759 146.906 190.912 147.456 191.223 147.933C191.535 148.404 191.972 148.772 192.536 149.037C193.106 149.302 193.775 149.435 194.544 149.435ZM194.544 140.158C195.167 140.158 195.718 140.032 196.195 139.78C196.679 139.528 197.06 139.177 197.338 138.726C197.617 138.275 197.759 137.755 197.766 137.165C197.759 136.581 197.62 136.071 197.348 135.634C197.077 135.189 196.699 134.848 196.215 134.609C195.731 134.364 195.174 134.241 194.544 134.241C193.901 134.241 193.335 134.364 192.844 134.609C192.36 134.848 191.982 135.189 191.711 135.634C191.445 136.071 191.316 136.581 191.323 137.165C191.316 137.755 191.449 138.275 191.721 138.726C191.999 139.17 192.38 139.521 192.864 139.78C193.355 140.032 193.915 140.158 194.544 140.158Z"
                fill="#212B36"
              />
              <path
                d="M150.171 165.614V164.364H158.898V165.614H155.239V176H153.83V165.614H150.171ZM162.272 176.205C161.719 176.205 161.217 176.1 160.766 175.892C160.316 175.68 159.958 175.375 159.692 174.977C159.427 174.576 159.295 174.091 159.295 173.523C159.295 173.023 159.393 172.617 159.59 172.307C159.787 171.992 160.05 171.746 160.38 171.568C160.71 171.39 161.073 171.258 161.471 171.17C161.872 171.08 162.276 171.008 162.681 170.955C163.211 170.886 163.641 170.835 163.971 170.801C164.304 170.763 164.547 170.701 164.698 170.614C164.853 170.527 164.931 170.375 164.931 170.159V170.114C164.931 169.553 164.778 169.117 164.471 168.807C164.168 168.496 163.708 168.341 163.09 168.341C162.45 168.341 161.948 168.481 161.585 168.761C161.221 169.042 160.965 169.341 160.817 169.659L159.545 169.205C159.772 168.674 160.075 168.261 160.454 167.966C160.836 167.667 161.253 167.458 161.704 167.341C162.158 167.22 162.605 167.159 163.045 167.159C163.325 167.159 163.647 167.193 164.011 167.261C164.378 167.326 164.732 167.46 165.073 167.665C165.418 167.869 165.704 168.178 165.931 168.591C166.158 169.004 166.272 169.557 166.272 170.25V176H164.931V174.818H164.863C164.772 175.008 164.621 175.21 164.408 175.426C164.196 175.642 163.914 175.826 163.562 175.977C163.21 176.129 162.78 176.205 162.272 176.205ZM162.477 175C163.007 175 163.454 174.896 163.817 174.688C164.185 174.479 164.461 174.21 164.647 173.881C164.836 173.551 164.931 173.205 164.931 172.841V171.614C164.874 171.682 164.749 171.744 164.556 171.801C164.367 171.854 164.147 171.902 163.897 171.943C163.651 171.981 163.41 172.015 163.175 172.045C162.944 172.072 162.757 172.095 162.613 172.114C162.264 172.159 161.939 172.233 161.636 172.335C161.336 172.434 161.094 172.583 160.908 172.784C160.727 172.981 160.636 173.25 160.636 173.591C160.636 174.057 160.808 174.409 161.153 174.648C161.501 174.883 161.942 175 162.477 175ZM174.901 169.227L173.697 169.568C173.621 169.367 173.509 169.172 173.362 168.983C173.218 168.79 173.021 168.631 172.771 168.506C172.521 168.381 172.201 168.318 171.81 168.318C171.276 168.318 170.831 168.441 170.475 168.688C170.123 168.93 169.947 169.239 169.947 169.614C169.947 169.947 170.068 170.21 170.31 170.403C170.553 170.597 170.932 170.758 171.447 170.886L172.742 171.205C173.522 171.394 174.104 171.684 174.487 172.074C174.869 172.46 175.06 172.958 175.06 173.568C175.06 174.068 174.916 174.515 174.629 174.909C174.344 175.303 173.947 175.614 173.435 175.841C172.924 176.068 172.329 176.182 171.651 176.182C170.761 176.182 170.024 175.989 169.441 175.602C168.858 175.216 168.488 174.652 168.333 173.909L169.606 173.591C169.727 174.061 169.956 174.413 170.293 174.648C170.634 174.883 171.079 175 171.629 175C172.254 175 172.75 174.867 173.117 174.602C173.488 174.333 173.674 174.011 173.674 173.636C173.674 173.333 173.568 173.08 173.356 172.875C173.144 172.667 172.818 172.511 172.379 172.409L170.924 172.068C170.125 171.879 169.538 171.585 169.163 171.188C168.791 170.786 168.606 170.284 168.606 169.682C168.606 169.189 168.744 168.754 169.021 168.375C169.301 167.996 169.682 167.699 170.163 167.483C170.647 167.267 171.197 167.159 171.81 167.159C172.674 167.159 173.352 167.348 173.844 167.727C174.341 168.106 174.693 168.606 174.901 169.227ZM178.329 172.818L178.306 171.159H178.579L182.397 167.273H184.056L179.988 171.386H179.874L178.329 172.818ZM177.079 176V164.364H178.42V176H177.079ZM182.624 176L179.215 171.682L180.17 170.75L184.329 176H182.624ZM191.282 172.432V167.273H192.623V176H191.282V174.523H191.191C190.987 174.966 190.668 175.343 190.237 175.653C189.805 175.96 189.259 176.114 188.6 176.114C188.055 176.114 187.57 175.994 187.146 175.756C186.721 175.513 186.388 175.15 186.146 174.665C185.903 174.176 185.782 173.561 185.782 172.818V167.273H187.123V172.727C187.123 173.364 187.301 173.871 187.657 174.25C188.017 174.629 188.475 174.818 189.032 174.818C189.365 174.818 189.704 174.733 190.049 174.562C190.397 174.392 190.689 174.131 190.924 173.778C191.163 173.426 191.282 172.977 191.282 172.432ZM195.079 176V167.273H196.374V168.591H196.465C196.624 168.159 196.912 167.809 197.329 167.54C197.746 167.271 198.215 167.136 198.738 167.136C198.836 167.136 198.96 167.138 199.107 167.142C199.255 167.146 199.367 167.152 199.442 167.159V168.523C199.397 168.511 199.293 168.494 199.13 168.472C198.971 168.445 198.802 168.432 198.624 168.432C198.2 168.432 197.821 168.521 197.488 168.699C197.158 168.873 196.897 169.116 196.704 169.426C196.514 169.733 196.42 170.083 196.42 170.477V176H195.079ZM201.032 176V167.273H202.373V176H201.032ZM201.714 165.818C201.452 165.818 201.227 165.729 201.038 165.551C200.852 165.373 200.759 165.159 200.759 164.909C200.759 164.659 200.852 164.445 201.038 164.267C201.227 164.089 201.452 164 201.714 164C201.975 164 202.199 164.089 202.384 164.267C202.574 164.445 202.668 164.659 202.668 164.909C202.668 165.159 202.574 165.373 202.384 165.551C202.199 165.729 201.975 165.818 201.714 165.818Z"
                fill="#637381"
              />
            </svg>