<svg width="398" height="374" viewBox="0 0 398 380" fill="none" xmlns="http://www.w3.org/2000/svg">
<mask id="path-1-inside-1_26_2475" fill="white">
<path d="M245 51.3477C275.192 51.3477 304.706 60.3007 329.809 77.0744C354.913 93.8481 374.479 117.689 386.033 145.583C397.587 173.477 400.61 204.17 394.72 233.782C388.829 263.394 374.291 290.594 352.942 311.943L315.162 274.163C329.039 260.286 338.489 242.606 342.318 223.359C346.146 204.111 344.181 184.16 336.671 166.029C329.161 147.898 316.443 132.402 300.126 121.499C283.809 110.596 264.624 104.776 245 104.776L245 51.3477Z"/>
</mask>
<path d="M245 51.3477C275.192 51.3477 304.706 60.3007 329.809 77.0744C354.913 93.8481 374.479 117.689 386.033 145.583C397.587 173.477 400.61 204.17 394.72 233.782C388.829 263.394 374.291 290.594 352.942 311.943L315.162 274.163C329.039 260.286 338.489 242.606 342.318 223.359C346.146 204.111 344.181 184.16 336.671 166.029C329.161 147.898 316.443 132.402 300.126 121.499C283.809 110.596 264.624 104.776 245 104.776L245 51.3477Z" stroke="#00D7A3" stroke-width="100" mask="url(#path-1-inside-1_26_2475)"/>
<mask id="path-2-inside-2_26_2475" fill="white">
<path d="M352.942 311.943C333.708 331.177 309.683 344.922 283.355 351.757C257.026 358.591 229.349 358.267 203.188 350.816L217.822 299.431C234.827 304.274 252.817 304.485 269.93 300.042C287.044 295.6 302.66 286.665 315.162 274.163L352.942 311.943Z"/>
</mask>
<path d="M352.942 311.943C333.708 331.177 309.683 344.922 283.355 351.757C257.026 358.591 229.349 358.267 203.188 350.816L217.822 299.431C234.827 304.274 252.817 304.485 269.93 300.042C287.044 295.6 302.66 286.665 315.162 274.163L352.942 311.943Z" stroke="#00D7A3" stroke-width="120" mask="url(#path-2-inside-2_26_2475)"/>
<mask id="path-3-inside-3_26_2475" fill="white">
<path d="M103.218 147.424C114.561 118.997 134.188 94.6364 159.551 77.5039C184.913 60.3715 214.84 51.2587 245.447 51.3484L245.291 104.777C225.396 104.718 205.944 110.642 189.458 121.778C172.972 132.914 160.215 148.749 152.842 167.226L103.218 147.424Z"/>
</mask>
<path d="M103.218 147.424C114.561 118.997 134.188 94.6364 159.551 77.5039C184.913 60.3715 214.84 51.2587 245.447 51.3484L245.291 104.777C225.396 104.718 205.944 110.642 189.458 121.778C172.972 132.914 160.215 148.749 152.842 167.226L103.218 147.424Z" stroke="#00D7A3" stroke-width="80" mask="url(#path-3-inside-3_26_2475)"/>
<path d="M106.619 209.73C106.337 202.935 106.557 196.145 107.27 189.416L109.019 190.114C108.358 196.589 108.158 203.119 108.429 209.655C109.225 228.895 114.078 247.749 122.669 264.982C131.26 282.215 143.395 297.439 158.279 309.656C163.335 313.806 168.67 317.578 174.239 320.947L173.744 322.764C167.941 319.282 162.387 315.371 157.13 311.056C142.048 298.678 129.752 283.252 121.048 265.79C112.343 248.329 107.426 229.225 106.619 209.73Z" fill="#174AFF" stroke="#3C50E0" stroke-width="75"/>
<path d="M138.889 114.666C143.289 109.48 148.054 104.638 153.14 100.175L153.953 101.873C149.077 106.185 144.502 110.85 140.27 115.838C127.812 130.52 118.596 147.669 113.227 166.162C107.858 184.654 106.457 204.072 109.116 223.144C110.019 229.622 111.383 236.012 113.192 242.264L111.597 243.264C109.692 236.77 108.26 230.13 107.321 223.394C104.628 204.069 106.047 184.394 111.488 165.657C116.928 146.919 126.265 129.543 138.889 114.666Z" fill="#174AFF" stroke="#3C50E0" stroke-width="75"/>
<path d="M264.234 66.7875C270.972 67.717 277.614 69.139 284.11 71.0349L283.113 72.6321C276.858 70.8318 270.467 69.4761 263.986 68.5821C244.911 65.9506 225.495 67.3791 207.01 72.774C188.526 78.169 171.389 87.4086 156.724 99.8876C151.742 104.127 147.084 108.707 142.779 113.59L141.079 112.78C145.536 107.687 150.371 102.915 155.55 98.5079C170.41 85.8635 187.773 76.5014 206.503 71.035C225.233 65.5685 244.906 64.1211 264.234 66.7875Z" fill="#174AFF" stroke="#3C50E0" stroke-width="75"/>
<path d="M221.104 182.636V203H217.415V186.226H217.296L212.533 189.269V185.888L217.594 182.636H221.104ZM233.354 203.279C232.029 203.279 230.842 203.03 229.795 202.533C228.747 202.029 227.915 201.34 227.299 200.465C226.689 199.59 226.364 198.589 226.325 197.462H229.904C229.97 198.297 230.332 198.98 230.988 199.51C231.644 200.034 232.433 200.296 233.354 200.296C234.077 200.296 234.72 200.13 235.283 199.798C235.847 199.467 236.291 199.006 236.616 198.416C236.941 197.826 237.1 197.154 237.093 196.398C237.1 195.629 236.937 194.946 236.606 194.35C236.274 193.753 235.82 193.286 235.244 192.948C234.667 192.603 234.004 192.431 233.255 192.431C232.645 192.424 232.045 192.537 231.455 192.769C230.865 193.001 230.398 193.306 230.053 193.683L226.722 193.136L227.786 182.636H239.599V185.719H230.839L230.252 191.118H230.371C230.749 190.674 231.283 190.306 231.972 190.014C232.662 189.716 233.417 189.567 234.239 189.567C235.472 189.567 236.573 189.859 237.54 190.442C238.508 191.019 239.271 191.814 239.827 192.828C240.384 193.842 240.663 195.002 240.663 196.308C240.663 197.654 240.351 198.854 239.728 199.908C239.112 200.955 238.253 201.78 237.153 202.384C236.059 202.98 234.793 203.279 233.354 203.279ZM243.626 199.222V196.288L252.266 182.636H254.712V186.813H253.221L247.404 196.03V196.189H259.465V199.222H243.626ZM253.34 203V198.327L253.38 197.014V182.636H256.86V203H253.34ZM270.099 203.279C269.125 203.272 268.174 203.103 267.246 202.771C266.318 202.433 265.482 201.886 264.74 201.131C263.998 200.368 263.408 199.358 262.97 198.098C262.533 196.832 262.317 195.264 262.324 193.395C262.324 191.652 262.509 190.097 262.881 188.732C263.252 187.366 263.786 186.213 264.482 185.271C265.178 184.324 266.016 183.601 266.997 183.104C267.985 182.607 269.089 182.358 270.308 182.358C271.588 182.358 272.721 182.61 273.709 183.114C274.703 183.618 275.505 184.307 276.115 185.182C276.725 186.05 277.103 187.031 277.249 188.125H273.619C273.434 187.343 273.053 186.72 272.476 186.256C271.906 185.785 271.183 185.55 270.308 185.55C268.896 185.55 267.809 186.163 267.047 187.389C266.291 188.616 265.91 190.299 265.903 192.44H266.043C266.367 191.857 266.788 191.357 267.305 190.939C267.822 190.521 268.406 190.2 269.055 189.975C269.712 189.743 270.404 189.627 271.134 189.627C272.327 189.627 273.397 189.912 274.345 190.482C275.3 191.052 276.055 191.837 276.612 192.838C277.169 193.833 277.444 194.973 277.438 196.259C277.444 197.598 277.139 198.801 276.523 199.868C275.906 200.929 275.048 201.764 273.947 202.374C272.847 202.984 271.564 203.285 270.099 203.279ZM270.08 200.296C270.802 200.296 271.448 200.12 272.018 199.769C272.589 199.417 273.039 198.943 273.371 198.347C273.702 197.75 273.865 197.081 273.858 196.338C273.865 195.609 273.706 194.949 273.381 194.359C273.063 193.77 272.622 193.302 272.058 192.958C271.495 192.613 270.852 192.44 270.129 192.44C269.592 192.44 269.092 192.543 268.628 192.749C268.164 192.954 267.759 193.239 267.415 193.604C267.07 193.962 266.798 194.379 266.599 194.857C266.407 195.327 266.308 195.831 266.301 196.368C266.308 197.077 266.473 197.73 266.798 198.327C267.123 198.923 267.571 199.401 268.141 199.759C268.711 200.117 269.357 200.296 270.08 200.296Z" fill="#212B36"/>
<path d="M219.172 216.614V215.364H227.899V216.614H224.24V227H222.831V216.614H219.172ZM231.272 227.205C230.719 227.205 230.217 227.101 229.767 226.892C229.316 226.68 228.958 226.375 228.693 225.977C228.428 225.576 228.295 225.091 228.295 224.523C228.295 224.023 228.394 223.618 228.591 223.307C228.788 222.993 229.051 222.746 229.38 222.568C229.71 222.39 230.074 222.258 230.471 222.171C230.873 222.08 231.276 222.008 231.681 221.955C232.212 221.886 232.642 221.835 232.971 221.801C233.305 221.763 233.547 221.701 233.699 221.614C233.854 221.527 233.931 221.375 233.931 221.159V221.114C233.931 220.553 233.778 220.118 233.471 219.807C233.168 219.496 232.708 219.341 232.091 219.341C231.45 219.341 230.949 219.481 230.585 219.761C230.221 220.042 229.966 220.341 229.818 220.659L228.545 220.205C228.772 219.674 229.075 219.261 229.454 218.966C229.837 218.667 230.253 218.458 230.704 218.341C231.159 218.22 231.606 218.159 232.045 218.159C232.325 218.159 232.647 218.193 233.011 218.261C233.378 218.326 233.733 218.46 234.074 218.665C234.418 218.869 234.704 219.178 234.931 219.591C235.159 220.004 235.272 220.557 235.272 221.25V227H233.931V225.818H233.863C233.772 226.008 233.621 226.21 233.409 226.426C233.197 226.642 232.914 226.826 232.562 226.977C232.21 227.129 231.78 227.205 231.272 227.205ZM231.477 226C232.007 226 232.454 225.896 232.818 225.688C233.185 225.479 233.462 225.21 233.647 224.881C233.837 224.551 233.931 224.205 233.931 223.841V222.614C233.875 222.682 233.75 222.744 233.556 222.801C233.367 222.854 233.147 222.902 232.897 222.943C232.651 222.981 232.411 223.015 232.176 223.046C231.945 223.072 231.757 223.095 231.613 223.114C231.265 223.159 230.939 223.233 230.636 223.335C230.337 223.434 230.094 223.583 229.909 223.784C229.727 223.981 229.636 224.25 229.636 224.591C229.636 225.057 229.808 225.409 230.153 225.648C230.502 225.883 230.943 226 231.477 226ZM243.902 220.227L242.697 220.568C242.621 220.368 242.51 220.172 242.362 219.983C242.218 219.79 242.021 219.631 241.771 219.506C241.521 219.381 241.201 219.318 240.811 219.318C240.277 219.318 239.832 219.441 239.476 219.688C239.123 219.93 238.947 220.239 238.947 220.614C238.947 220.947 239.068 221.21 239.311 221.404C239.553 221.597 239.932 221.758 240.447 221.886L241.743 222.205C242.523 222.394 243.104 222.684 243.487 223.074C243.869 223.46 244.061 223.958 244.061 224.568C244.061 225.068 243.917 225.515 243.629 225.909C243.345 226.303 242.947 226.614 242.436 226.841C241.924 227.068 241.33 227.182 240.652 227.182C239.761 227.182 239.025 226.989 238.441 226.602C237.858 226.216 237.489 225.652 237.333 224.909L238.606 224.591C238.727 225.061 238.957 225.413 239.294 225.648C239.635 225.883 240.08 226 240.629 226C241.254 226 241.75 225.868 242.118 225.602C242.489 225.333 242.674 225.011 242.674 224.636C242.674 224.333 242.568 224.08 242.356 223.875C242.144 223.667 241.818 223.511 241.379 223.409L239.924 223.068C239.125 222.879 238.538 222.585 238.163 222.188C237.792 221.786 237.606 221.284 237.606 220.682C237.606 220.19 237.744 219.754 238.021 219.375C238.301 218.996 238.682 218.699 239.163 218.483C239.648 218.267 240.197 218.159 240.811 218.159C241.674 218.159 242.352 218.349 242.845 218.727C243.341 219.106 243.693 219.606 243.902 220.227ZM247.329 223.818L247.306 222.159H247.579L251.397 218.273H253.056L248.988 222.386H248.875L247.329 223.818ZM246.079 227V215.364H247.42V227H246.079ZM251.625 227L248.216 222.682L249.17 221.75L253.329 227H251.625ZM260.282 223.432V218.273H261.623V227H260.282V225.523H260.191C259.987 225.966 259.669 226.343 259.237 226.654C258.805 226.96 258.26 227.114 257.601 227.114C257.055 227.114 256.57 226.994 256.146 226.756C255.722 226.513 255.388 226.15 255.146 225.665C254.904 225.176 254.782 224.561 254.782 223.818V218.273H256.123V223.727C256.123 224.364 256.301 224.871 256.657 225.25C257.017 225.629 257.476 225.818 258.032 225.818C258.366 225.818 258.705 225.733 259.049 225.563C259.398 225.392 259.69 225.131 259.924 224.779C260.163 224.426 260.282 223.977 260.282 223.432ZM264.079 227V218.273H265.375V219.591H265.466C265.625 219.159 265.913 218.809 266.329 218.54C266.746 218.271 267.216 218.136 267.738 218.136C267.837 218.136 267.96 218.138 268.108 218.142C268.255 218.146 268.367 218.152 268.443 218.159V219.523C268.397 219.511 268.293 219.494 268.13 219.472C267.971 219.445 267.803 219.432 267.625 219.432C267.2 219.432 266.822 219.521 266.488 219.699C266.159 219.873 265.897 220.116 265.704 220.426C265.515 220.733 265.42 221.083 265.42 221.477V227H264.079ZM270.032 227V218.273H271.373V227H270.032ZM270.714 216.818C270.453 216.818 270.227 216.729 270.038 216.551C269.852 216.373 269.76 216.159 269.76 215.909C269.76 215.659 269.852 215.445 270.038 215.267C270.227 215.089 270.453 215 270.714 215C270.976 215 271.199 215.089 271.385 215.267C271.574 215.445 271.669 215.659 271.669 215.909C271.669 216.159 271.574 216.373 271.385 216.551C271.199 216.729 270.976 216.818 270.714 216.818Z" fill="#637381"/>
</svg>
