<svg width="160" height="40" viewBox="0 0 160 40" fill="none" xmlns="http://www.w3.org/2000/svg">
<path d="M22.3205 9L5 19V13L17.1282 6L22.3205 9Z" fill="#174AFF"/>
<path d="M29.2564 13V16.4615L8 28.7308L5 27V23.7436L26.4231 11.3718L29.2564 13Z" fill="#174AFF"/>
<path d="M12.1026 31.1026L29.2564 21.2051V27L17.1282 34L12.1026 31.1026Z" fill="#174AFF"/>
<path d="M12.1025 31.1026L29.2564 21.2051V27L17.1282 34L12.1025 31.1026Z" fill="#00D7A3"/>
<path d="M22.3205 9L5 19V13L17.1282 6L22.3205 9Z" fill="#00D7A3"/>
<path d="M36.0458 26V12.1818H45.6808V14.8942H39.3857V17.728H45.1882V20.4471H39.3857V23.2876H45.6808V26H36.0458ZM50.5792 15.6364L52.2862 19.0504L54.054 15.6364H57.3803L54.4858 20.8182L57.4883 26H54.1889L52.2862 22.5589L50.4308 26H47.0842L50.0934 20.8182L47.2326 15.6364H50.5792ZM58.8866 29.8864V15.6364H62.1523V17.4109H62.2535C62.3884 17.096 62.5796 16.7924 62.827 16.5C63.0789 16.2076 63.3982 15.9692 63.7851 15.7848C64.1764 15.5959 64.6442 15.5014 65.1885 15.5014C65.9082 15.5014 66.5806 15.6903 67.2059 16.0682C67.8356 16.446 68.3439 17.0285 68.7307 17.8157C69.1176 18.6029 69.311 19.6059 69.311 20.8249C69.311 21.9989 69.1243 22.9818 68.751 23.7734C68.3821 24.5651 67.8828 25.1589 67.2531 25.5547C66.6279 25.9505 65.9329 26.1484 65.1682 26.1484C64.6465 26.1484 64.1944 26.063 63.8121 25.892C63.4297 25.7211 63.1081 25.4962 62.8472 25.2173C62.5908 24.9384 62.3929 24.6393 62.2535 24.32H62.186V29.8864H58.8866ZM62.1185 20.8182C62.1185 21.3759 62.1927 21.8617 62.3412 22.2756C62.4941 22.6894 62.7123 23.011 62.9956 23.2404C63.2835 23.4653 63.6276 23.5778 64.028 23.5778C64.4328 23.5778 64.7769 23.4653 65.0603 23.2404C65.3437 23.011 65.5573 22.6894 65.7013 22.2756C65.8497 21.8617 65.9239 21.3759 65.9239 20.8182C65.9239 20.2604 65.8497 19.7769 65.7013 19.3675C65.5573 18.9582 65.3437 18.6411 65.0603 18.4162C64.7814 18.1913 64.4373 18.0788 64.028 18.0788C63.6231 18.0788 63.279 18.189 62.9956 18.4094C62.7123 18.6299 62.4941 18.9447 62.3412 19.354C62.1927 19.7634 62.1185 20.2514 62.1185 20.8182ZM75.8844 26.1957C74.8004 26.1957 73.8648 25.982 73.0776 25.5547C72.2949 25.1229 71.6922 24.5089 71.2694 23.7127C70.851 22.9121 70.6419 21.9607 70.6419 20.8587C70.6419 19.7881 70.8533 18.8525 71.2761 18.0518C71.6989 17.2467 72.2949 16.6214 73.0641 16.1761C73.8333 15.7263 74.7396 15.5014 75.7832 15.5014C76.5209 15.5014 77.1956 15.6161 77.8074 15.8455C78.4191 16.0749 78.9476 16.4145 79.3929 16.8643C79.8382 17.3142 80.1846 17.8697 80.432 18.5309C80.6794 19.1876 80.8031 19.9411 80.8031 20.7912V21.6143H71.7956V19.6982H77.7331C77.7286 19.3473 77.6454 19.0347 77.4835 18.7603C77.3216 18.4859 77.0989 18.2723 76.8155 18.1193C76.5366 17.9619 76.215 17.8832 75.8507 17.8832C75.4818 17.8832 75.1512 17.9664 74.8588 18.1328C74.5665 18.2947 74.3348 18.5174 74.1639 18.8008C73.993 19.0797 73.903 19.3968 73.894 19.7521V21.7021C73.894 22.1249 73.9772 22.496 74.1436 22.8153C74.3101 23.1302 74.5462 23.3754 74.8521 23.5508C75.158 23.7262 75.5223 23.8139 75.9451 23.8139C76.2375 23.8139 76.5029 23.7734 76.7413 23.6925C76.9797 23.6115 77.1844 23.4923 77.3553 23.3349C77.5262 23.1774 77.6544 22.984 77.7399 22.7546L80.7694 22.8423C80.6434 23.5215 80.3668 24.113 79.9395 24.6168C79.5166 25.1161 78.9611 25.5052 78.2729 25.7841C77.5847 26.0585 76.7885 26.1957 75.8844 26.1957ZM82.4882 26V15.6364H85.6931V17.5256H85.801C85.99 16.8419 86.2981 16.3336 86.7254 16.0007C87.1527 15.6634 87.6498 15.4947 88.2165 15.4947C88.3695 15.4947 88.5269 15.5059 88.6888 15.5284C88.8508 15.5464 89.0015 15.5756 89.1409 15.6161V18.4837C88.9835 18.4297 88.7765 18.387 88.5202 18.3555C88.2683 18.324 88.0434 18.3082 87.8454 18.3082C87.4541 18.3082 87.101 18.396 86.7861 18.5714C86.4758 18.7423 86.2306 18.983 86.0507 19.2933C85.8753 19.5992 85.7876 19.959 85.7876 20.3729V26H82.4882ZM96.8175 15.6364V18.0653H90.2795V15.6364H96.8175ZM91.6491 13.1534H94.9485V22.7411C94.9485 22.9435 94.98 23.1077 95.043 23.2337C95.1104 23.3551 95.2071 23.4428 95.3331 23.4968C95.459 23.5463 95.6097 23.571 95.7852 23.571C95.9111 23.571 96.0438 23.5598 96.1832 23.5373C96.3272 23.5103 96.4351 23.4878 96.5071 23.4698L97.0064 25.8516C96.849 25.8965 96.6263 25.9528 96.3384 26.0202C96.055 26.0877 95.7154 26.1304 95.3196 26.1484C94.5459 26.1844 93.8825 26.0945 93.3292 25.8786C92.7804 25.6581 92.3598 25.3163 92.0675 24.853C91.7796 24.3897 91.6402 23.8072 91.6491 23.1055V13.1534ZM103.227 26.1957C102.139 26.1957 101.203 25.973 100.42 25.5277C99.6423 25.0779 99.0418 24.4527 98.619 23.652C98.2006 22.8468 97.9915 21.9135 97.9915 20.8519C97.9915 19.7859 98.2006 18.8525 98.619 18.0518C99.0418 17.2467 99.6423 16.6214 100.42 16.1761C101.203 15.7263 102.139 15.5014 103.227 15.5014C104.316 15.5014 105.249 15.7263 106.027 16.1761C106.81 16.6214 107.411 17.2467 107.829 18.0518C108.252 18.8525 108.463 19.7859 108.463 20.8519C108.463 21.9135 108.252 22.8468 107.829 23.652C107.411 24.4527 106.81 25.0779 106.027 25.5277C105.249 25.973 104.316 26.1957 103.227 26.1957ZM103.248 23.706C103.643 23.706 103.978 23.5845 104.253 23.3416C104.527 23.0987 104.736 22.7614 104.88 22.3295C105.029 21.8977 105.103 21.3984 105.103 20.8317C105.103 20.2559 105.029 19.7521 104.88 19.3203C104.736 18.8885 104.527 18.5511 104.253 18.3082C103.978 18.0653 103.643 17.9439 103.248 17.9439C102.838 17.9439 102.492 18.0653 102.208 18.3082C101.93 18.5511 101.716 18.8885 101.567 19.3203C101.424 19.7521 101.352 20.2559 101.352 20.8317C101.352 21.3984 101.424 21.8977 101.567 22.3295C101.716 22.7614 101.93 23.0987 102.208 23.3416C102.492 23.5845 102.838 23.706 103.248 23.706Z" fill="white"/>
</svg>
